<svg width="73" height="70" viewBox="0 0 73 70" fill="none" xmlns="http://www.w3.org/2000/svg">
<g clip-path="url(#clip0)">
<path d="M41.448 53.5618L36.3448 47.0915" stroke="black" stroke-width="0.946667"/>
<path d="M36.7304 47.1334H21.0662" stroke="black" stroke-width="0.946667"/>
<path d="M20.9836 47.0452L32.0878 29.7115" stroke="black" stroke-width="0.946667"/>
<path d="M42.2589 54.1333H8.16627" stroke="black" stroke-width="0.946667"/>
<path d="M8.18814 53.9188L33.2152 15.6521" stroke="black" stroke-width="0.946667"/>
<path d="M33.1448 15.9007L56.1511 52.4764" stroke="black" stroke-width="0.946667"/>
<path d="M32.5785 30.0388L47.6031 53.1437" stroke="black" stroke-width="0.946667"/>
<path d="M46.866 52.7333H57.0016" stroke="black" stroke-width="0.946667"/>
<path d="M43.1803 29.8666H53.7767" stroke="black" stroke-width="0.946667"/>
<path d="M53.316 30.3333V17.7333" stroke="black" stroke-width="0.946667"/>
<path d="M52.8552 17.2667H61.6088" stroke="black" stroke-width="0.946667"/>
<path d="M61.6088 17.2667V52.7333" stroke="black" stroke-width="0.946667"/>
<path d="M45.9446 35.9333H54.2374" stroke="black" stroke-width="0.946667"/>
<path d="M53.7767 36.4V48.0667" stroke="black" stroke-width="0.946667"/>
<path d="M43.1803 29.8667V16.8" stroke="black" stroke-width="0.946667"/>
<path d="M61.1829 52.7319L57.0395 52.8014" stroke="black" stroke-width="0.473333"/>
<path d="M43.1803 17.2667H36.7304" stroke="black" stroke-width="0.946667"/>
<path d="M36.4972 16.6496L36.3167 20.8561" stroke="black" stroke-width="0.946667"/>
<path d="M0.334178 1.63336H72.6658" stroke="black" stroke-width="3.31333"/>
<path d="M71.0533 3.26666V70" stroke="black" stroke-width="3.31333"/>
<path d="M1.94667 3.26666V70" stroke="black" stroke-width="3.31333"/>
<path d="M0.334178 68.3666H72.6658" stroke="black" stroke-width="3.31333"/>
</g>
<defs>
<clipPath id="clip0">
<rect width="73" height="70" fill="white"/>
</clipPath>
</defs>
</svg>
